<svg xmlns="http://www.w3.org/2000/svg" width="32" height="32" viewBox="0 0 256 256">
  <!-- Left top segment -->
  <path 
    d="M 32 214 L 100 214"
    fill="none"
    stroke="oklch(52.7% 0.154 150.069)"
    stroke-width="24"
    stroke-linecap="round"
  />
  <!-- Right top segment -->
  <path 
    d="M 164 214 L 224 214"
    fill="none"
    stroke="oklch(52.7% 0.154 150.069)"
    stroke-width="24"
    stroke-linecap="round"
  />
  <!-- Lightning bolt -->
  <path 
    d="M185.432.063L96.44 17.501a3.268 3.268 0 0 0-2.634 3.014l-5.474 92.456a3.268 3.268 0 0 0 3.997 3.378l24.777-5.718c2.318-.535 4.413 1.507 3.936 3.838l-7.361 36.047c-.495 2.426 1.782 4.5 4.151 3.78l15.304-4.649c2.372-.72 4.652 1.36 4.15 3.788l-11.698 56.621c-.732 3.542 3.979 5.473 5.943 2.437l1.313-2.028l72.516-144.72c1.215-2.423-.88-5.186-3.54-4.672l-25.505 4.922c-2.396.462-4.435-1.77-3.759-4.114l16.646-57.705c.677-2.35-1.37-4.583-3.769-4.113Z"
    fill="oklch(52.7% 0.154 150.069)"
  />
</svg>
